# xmcd
#
# Track frame offsets:
#	150
#	8320
#	32445
#	48627
#	63835
#	86257
#	102250
#	121530
#	139177
#	155415
#	165222
#	176377
#	189935
#	208200
#	232262
#	249132
#
# Disc length: 3585 seconds
#
# Revision: 4
# Processed by: cddbd v1.5.1PL2 Copyright (c) Steve Scherf et al.
# Submitted via: EasyCDDAExtractor 8.2.3.1
#
DISCID=b60dff10
DTITLE=Various Artist - presents Nightvision
DYEAR=1999
DGENRE=Drum and Bass
TTITLE0=Infrared - Intro
TTITLE1=J Majik - Nightvision
TTITLE2=Total Science - Vendetta
TTITLE3=J Majik - Freefall
TTITLE4=Everything But The Girl - Blame (J Majik VIP mix)
TTITLE5=System 3 - Gatekeeper
TTITLE6=Futurebound - Poison Chalice
TTITLE7=J Majik - Space Jam
TTITLE8=System 3 - I Want You
TTITLE9=Photek - Subway (Photek mix)
TTITLE10=Goldie and J Majik - Inside The Shadow
TTITLE11=System 3 - The Lizard
TTITLE12=J Majik - Loaded
TTITLE13=System 3 - Push It
TTITLE14=J Majik - Manhunt
TTITLE15=J Majik - Rotation
EXTD=
EXTT0=
EXTT1=
EXTT2=
EXTT3=
EXTT4=
EXTT5=
EXTT6=
EXTT7=
EXTT8=
EXTT9=
EXTT10=
EXTT11=
EXTT12=
EXTT13=
EXTT14=
EXTT15=
PLAYORDER=
